<?xml version="1.0" standalone="no"?><!DOCTYPE svg PUBLIC "-//W3C//DTD SVG 1.1//EN" "http://www.w3.org/Graphics/SVG/1.1/DTD/svg11.dtd"><svg t="1587791239693" class="icon" viewBox="0 0 1024 1024" version="1.1" xmlns="http://www.w3.org/2000/svg" p-id="5074" xmlns:xlink="http://www.w3.org/1999/xlink" width="200" height="200"><defs><style type="text/css"></style></defs><path d="M691.2 1024c-14.08 0-25.6-11.52-25.6-25.6V153.6c0-56.32-46.08-102.4-102.4-102.4H204.8c-56.32 0-102.4 46.08-102.4 102.4v844.8c0 14.08-11.52 25.6-25.6 25.6s-25.6-11.52-25.6-25.6V153.6C51.2 69.12 120.32 0 204.8 0h358.4c84.48 0 153.6 69.12 153.6 153.6v844.8c0 14.08-11.52 25.6-25.6 25.6z" fill="#ffffff" p-id="5075"></path><path d="M998.4 1024H25.6c-14.08 0-25.6-11.52-25.6-25.6s11.52-25.6 25.6-25.6h972.8c14.08 0 25.6 11.52 25.6 25.6s-11.52 25.6-25.6 25.6zM320 230.4h-115.2c-14.08 0-25.6-11.52-25.6-25.6s11.52-25.6 25.6-25.6h115.2c14.08 0 25.6 11.52 25.6 25.6s-11.52 25.6-25.6 25.6zM563.2 230.4h-115.2c-14.08 0-25.6-11.52-25.6-25.6s11.52-25.6 25.6-25.6h115.2c14.08 0 25.6 11.52 25.6 25.6s-11.52 25.6-25.6 25.6zM320 409.6h-115.2c-14.08 0-25.6-11.52-25.6-25.6s11.52-25.6 25.6-25.6h115.2c14.08 0 25.6 11.52 25.6 25.6s-11.52 25.6-25.6 25.6zM563.2 409.6h-115.2c-14.08 0-25.6-11.52-25.6-25.6s11.52-25.6 25.6-25.6h115.2c14.08 0 25.6 11.52 25.6 25.6s-11.52 25.6-25.6 25.6zM320 588.8h-115.2c-14.08 0-25.6-11.52-25.6-25.6s11.52-25.6 25.6-25.6h115.2c14.08 0 25.6 11.52 25.6 25.6s-11.52 25.6-25.6 25.6zM320 768h-115.2c-14.08 0-25.6-11.52-25.6-25.6s11.52-25.6 25.6-25.6h115.2c14.08 0 25.6 11.52 25.6 25.6s-11.52 25.6-25.6 25.6zM563.2 588.8h-115.2c-14.08 0-25.6-11.52-25.6-25.6s11.52-25.6 25.6-25.6h115.2c14.08 0 25.6 11.52 25.6 25.6s-11.52 25.6-25.6 25.6z" fill="#ffffff" p-id="5076"></path><path d="M947.2 1024c-14.08 0-25.6-11.52-25.6-25.6V320c0-56.32-46.08-102.4-102.4-102.4H691.2c-14.08 0-25.6-11.52-25.6-25.6s11.52-25.6 25.6-25.6h128c84.48 0 153.6 69.12 153.6 153.6v678.4c0 14.08-11.52 25.6-25.6 25.6z" fill="#ffffff" p-id="5077"></path><path d="M819.2 588.8c-14.08 0-25.6-11.52-25.6-25.6V371.2c0-14.08 11.52-25.6 25.6-25.6s25.6 11.52 25.6 25.6v192c0 14.08-11.52 25.6-25.6 25.6zM819.2 768c-14.08 0-25.6-11.52-25.6-25.6v-76.8c0-14.08 11.52-25.6 25.6-25.6s25.6 11.52 25.6 25.6v76.8c0 14.08-11.52 25.6-25.6 25.6z" fill="#ffffff" p-id="5078"></path></svg>