<?xml version="1.0" standalone="no"?><!DOCTYPE svg PUBLIC "-//W3C//DTD SVG 1.1//EN" "http://www.w3.org/Graphics/SVG/1.1/DTD/svg11.dtd"><svg t="1587791097601" class="icon" viewBox="0 0 1024 1024" version="1.1" xmlns="http://www.w3.org/2000/svg" p-id="4223" xmlns:xlink="http://www.w3.org/1999/xlink" width="200" height="200"><defs><style type="text/css"></style></defs><path d="M945.3 960.32H38.91V104.03c0-22.47 18.23-40.7 40.7-40.7s40.7 18.23 40.7 40.7v774.88H945.3c22.47 0 40.7 18.23 40.7 40.7s-18.23 40.71-40.7 40.71z" fill="#ffffff" p-id="4224"></path><path d="M319.1 776.16c-22.47 0-40.7-18.23-40.7-40.7V493.08c0-22.47 18.23-40.7 40.7-40.7s40.7 18.23 40.7 40.7v242.38c0 22.46-18.23 40.7-40.7 40.7zM541.13 776.16c-22.47 0-40.7-18.23-40.7-40.7V266.04c0-22.47 18.23-40.7 40.7-40.7s40.7 18.23 40.7 40.7v469.41c0 22.47-18.23 40.71-40.7 40.71zM773.46 776.16c-22.47 0-40.7-18.23-40.7-40.7V338.28c0-22.47 18.23-40.7 40.7-40.7 22.47 0 40.7 18.23 40.7 40.7v397.18c0 22.46-18.23 40.7-40.7 40.7z" fill="#ffffff" p-id="4225"></path></svg>