<?xml version="1.0" standalone="no"?><!DOCTYPE svg PUBLIC "-//W3C//DTD SVG 1.1//EN" "http://www.w3.org/Graphics/SVG/1.1/DTD/svg11.dtd"><svg t="1587791276527" class="icon" viewBox="0 0 1024 1024" version="1.1" xmlns="http://www.w3.org/2000/svg" p-id="5872" xmlns:xlink="http://www.w3.org/1999/xlink" width="200" height="200"><defs><style type="text/css"></style></defs><path d="M926.5 883.5L719 760.7h193.6V180.5H525.7V97.6h-41.4v82.9H97.5v580.2h200.9L97.7 882.3l20.7 35.9 260-157.6h105.9v165.8h41.4V760.7h114.1L906 918.3l20.5-34.8zM138.9 719.2V221.9h732.2v497.3H138.9z" p-id="5873" fill="#ffffff"></path><path d="M235.6 512H277v124.3h-41.4V512zM360 387.7h41.4v248.7H360V387.7zM484.3 429.1h41.4v207.2h-41.4V429.1zM608.6 304.8H650v331.5h-41.4V304.8zM733 429.1h41.4v207.2H733V429.1z" p-id="5874" fill="#ffffff"></path></svg>