<?xml version="1.0" standalone="no"?><!DOCTYPE svg PUBLIC "-//W3C//DTD SVG 1.1//EN" "http://www.w3.org/Graphics/SVG/1.1/DTD/svg11.dtd"><svg t="1587790824445" class="icon" viewBox="0 0 1024 1024" version="1.1" xmlns="http://www.w3.org/2000/svg" p-id="1609" xmlns:xlink="http://www.w3.org/1999/xlink" width="200" height="200"><defs><style type="text/css"></style></defs><path d="M694.044444 0H207.644444C139.377778 0 85.333333 54.044444 85.333333 119.466667v785.066666C85.333333 969.955556 139.377778 1024 207.644444 1024h611.555556c65.422222 0 122.311111-54.044444 122.311111-119.466667V241.777778L694.044444 0z m176.355556 881.777778c0 45.511111-36.977778 82.488889-82.488889 82.488889H236.088889c-45.511111 0-82.488889-36.977778-82.488889-82.488889V142.222222c0-45.511111 36.977778-82.488889 82.488889-82.488889h432.355555v150.755556c0 25.6 22.755556 48.355556 48.355556 48.355555h150.755556l2.844444 622.933334zM497.777778 560.355556l-2.844445-2.844445c-17.066667-14.222222-42.666667-11.377778-56.888889 2.844445-17.066667 17.066667-17.066667 45.511111 0 62.577777l85.333334 85.333334c2.844444 2.844444 2.844444 5.688889 5.688889 8.533333h2.844444c17.066667 14.222222 45.511111 14.222222 62.577778 0 2.844444-2.844444 5.688889-5.688889 5.688889-8.533333l173.511111-176.355556c17.066667-17.066667 17.066667-45.511111 0-62.577778 0-2.844444-2.844444-2.844444-5.688889-2.844444-17.066667-14.222222-42.666667-11.377778-56.888889 2.844444l-150.755555 153.6-62.577778-62.577777z m-150.755556-71.111112c0-25.6 22.755556-42.666667 48.355556-42.666666h113.777778c25.6 0 48.355556 19.911111 48.355555 42.666666v14.222223h73.955556v-62.577778c0-34.133333-31.288889-62.577778-68.266667-62.577778H341.333333c-36.977778 0-68.266667 28.444444-68.266666 62.577778v201.955555c0 34.133333 31.288889 62.577778 68.266666 62.577778h68.266667v-68.266666h-14.222222c-25.6 0-48.355556-19.911111-48.355556-42.666667v-105.244445z" fill="#ffffff" p-id="1610"></path></svg>